<svg width="100" height="101" viewBox="0 0 100 101" fill="none" xmlns="http://www.w3.org/2000/svg">
  <path
    d="M73.4258 9.3584H26.5742C16.2124 9.3584 7.8125 17.7583 7.8125 28.1201V72.4658C7.8125 82.8276 16.2124 91.2275 26.5742 91.2275H73.4258C83.7876 91.2275 92.1875 82.8276 92.1875 72.4658V28.1201C92.1875 17.7583 83.7876 9.3584 73.4258 9.3584Z"
    fill="#271302" />
  <path
    d="M73.4258 13.2646H26.5742C18.3698 13.2646 11.7188 19.9157 11.7188 28.1201V72.4658C11.7188 80.6703 18.3698 87.3213 26.5742 87.3213H73.4258C81.6302 87.3213 88.2812 80.6703 88.2812 72.4658V28.1201C88.2812 19.9157 81.6302 13.2646 73.4258 13.2646Z"
    fill="#271302" />
  <path
    d="M37.3728 57.1631L34.9919 64.5068C34.9589 64.6241 34.8869 64.7266 34.7879 64.7976C34.6889 64.8686 34.5687 64.9038 34.447 64.8975H28.6912C28.3435 64.8975 28.2439 64.7021 28.3005 64.4014L38.2224 35.7725C38.4177 35.2275 38.613 34.6318 38.7185 32.7471C38.7141 32.6618 38.7426 32.5781 38.7983 32.5134C38.8539 32.4487 38.9324 32.4078 39.0173 32.3994H46.9548C47.2029 32.3994 47.3025 32.4482 47.3455 32.6963L58.6091 64.4502C58.7087 64.6982 58.658 64.8975 58.3611 64.8975H51.9158C51.7979 64.9144 51.6778 64.8886 51.5772 64.8249C51.4766 64.7612 51.402 64.6636 51.3669 64.5498L48.8279 57.1572L37.3728 57.1631ZM46.9998 50.9619C46.0076 47.6865 44.0212 41.6826 43.0798 38.1611H43.0291C42.2361 41.4814 40.449 46.9502 39.1599 50.9619H46.9998Z"
    fill="#FF7C01" />
  <path
    d="M61.5859 33.7451C61.5859 31.5127 63.2227 29.9248 65.4551 29.9248C67.8359 29.9248 69.2754 31.5127 69.2754 33.7451C69.2754 36.0771 67.7383 37.6143 65.4062 37.6143C63.0742 37.6143 61.5859 36.0771 61.5859 33.7451ZM61.9316 40.6416C61.9316 40.3936 62.0312 40.251 62.3223 40.251H68.4238C68.7227 40.251 68.8144 40.3486 68.8144 40.6416V64.4561C68.8144 64.7549 68.7656 64.9033 68.3691 64.9033H62.4277C62.082 64.9033 61.9316 64.7549 61.9316 64.4561V40.6416Z"
    fill="#FF7C01" />
</svg> 