<svg width="100" height="100" viewBox="0 0 100 100" fill="none" xmlns="http://www.w3.org/2000/svg">
	<path d="M12.6987 48.5575C12.6987 31.3175 12.6987 22.6976 18.0545 17.3418C23.4103 11.9861 32.0302 11.9861 49.2702 11.9861H52.3178C69.5578 11.9861 78.1776 11.9861 83.5335 17.3418C88.8892 22.6976 88.8892 31.3175 88.8892 48.5575V51.6051C88.8892 68.8451 88.8892 77.465 83.5335 82.8208C78.1776 88.1766 69.5578 88.1766 52.3178 88.1766H49.2702C32.0302 88.1766 23.4103 88.1766 18.0545 82.8208C12.6987 77.465 12.6987 68.8451 12.6987 51.6051V48.5575Z" fill="#0077FF" />
	<path d="M53.0794 66.8751C35.7143 66.8751 25.8097 54.9704 25.397 35.1609H34.0954C34.3811 49.7005 40.7936 55.8593 45.873 57.1291V35.1609H54.0638V47.7005C59.0797 47.1609 64.3489 41.4466 66.1267 35.1609H74.3173C72.9522 42.9069 67.2379 48.6212 63.1744 50.9704C67.2379 52.8751 73.7462 57.8593 76.2224 66.8751H67.2062C65.2697 60.8434 60.4447 56.1767 54.0638 55.5418V66.8751H53.0794Z" fill="white" />
</svg>
