<svg width="100" height="101" viewBox="0 0 100 101" fill="none" xmlns="http://www.w3.org/2000/svg">
  <path
    d="M73.4258 9.3584H26.5742C16.2124 9.3584 7.8125 17.7583 7.8125 28.1201V72.4658C7.8125 82.8276 16.2124 91.2275 26.5742 91.2275H73.4258C83.7876 91.2275 92.1875 82.8276 92.1875 72.4658V28.1201C92.1875 17.7583 83.7876 9.3584 73.4258 9.3584Z"
    fill="#001D23" />
  <path
    d="M73.4258 13.2646H26.5742C18.3698 13.2646 11.7188 19.9157 11.7188 28.1201V72.4658C11.7188 80.6703 18.3698 87.3213 26.5742 87.3213H73.4258C81.6302 87.3213 88.2812 80.6703 88.2812 72.4658V28.1201C88.2812 19.9157 81.6302 13.2646 73.4258 13.2646Z"
    fill="#001D23" />
  <path
    d="M28.8906 32.8525C28.8906 32.5537 28.9395 32.4619 29.1875 32.4619C31.2227 32.4131 35.1406 32.3135 38.9121 32.3135C48.9336 32.3135 52.4082 37.8701 52.4082 43.2783C52.4082 51.3174 46.2051 54.7393 38.5645 54.7393H35.7422V64.5049C35.7422 64.7529 35.6426 64.8955 35.3516 64.8955H29.2363C28.9883 64.8955 28.8906 64.7471 28.8906 64.5049V32.8525ZM35.7422 48.6299C36.5859 48.6787 37.1309 48.6787 38.5215 48.6787C42.4414 48.6787 45.5664 47.4873 45.5664 43.4189C45.5664 40.2939 43.4336 38.3096 39.1211 38.3096C37.5332 38.3096 36.1914 38.3584 35.7461 38.4092L35.7422 48.6299Z"
    fill="#01C8FE" />
  <path
    d="M65.1562 45.2549C62.8242 45.2549 62.0801 46.0986 62.0801 46.9424C62.0801 47.7861 62.7266 48.4307 65.5957 49.5225C71.5996 51.7061 73.4844 54.0381 73.4844 57.5596C73.4844 62.2744 69.8125 65.3994 63.2637 65.3994C60.2383 65.3994 57.5996 64.8525 56.0703 64.0107C55.965 63.9639 55.8758 63.887 55.814 63.7897C55.7522 63.6925 55.7204 63.5791 55.7227 63.4639V58.1045C55.7227 57.8057 55.918 57.6572 56.1133 57.8057C58.3965 59.2451 61.1738 59.79 63.4063 59.79C65.7383 59.79 66.7813 59.1455 66.7813 58.1045C66.7813 57.1611 65.9375 56.4658 63.0098 55.3701C57.4043 53.2861 55.5684 50.9033 55.5684 47.3311C55.5684 43.4619 58.6934 39.7412 65.2422 39.7412C68.1719 39.7412 70.4531 40.1318 71.6875 40.7334C71.8046 40.7921 71.9006 40.8855 71.9625 41.0009C72.0244 41.1163 72.0491 41.248 72.0332 41.3779V46.3389C72.0332 46.6377 71.8379 46.835 71.5371 46.6865C69.9219 45.8506 67.3828 45.2549 65.1562 45.2549Z"
    fill="#01C8FE" />
</svg> 