<svg width="64" height="64" viewBox="0 0 64 64" fill="none" xmlns="http://www.w3.org/2000/svg">
	<path d="M14.4762 9C11.4533 9 9 11.4533 9 14.4762V49.5238C9 52.5467 11.4533 55 14.4762 55H49.5238C52.5467 55 55 52.5467 55 49.5238V14.4762C55 11.4533 52.5467 9 49.5238 9H14.4762ZM17.7619 24.3333H25.1334C25.9329 24.3333 30.2587 24.2789 30.2587 28.2437C30.2587 30.3465 28.8236 31.0578 28.1774 31.3754C29.1412 31.682 30.9048 32.5695 30.9048 35.2857C30.9048 39.4805 26.0962 39.6667 25.45 39.6667H17.7619V24.3333ZM36.381 24.3333H44.0476V26.5238H36.381V24.3333ZM21.0476 26.9944V30.5882H24.5751C25.057 30.5882 26.6543 30.3243 26.6543 28.7143C26.6543 27.1043 24.5739 26.9944 24.2563 26.9944H21.0476ZM40.4667 27.619C44.7381 27.619 45.8981 30.9483 46.0734 31.7369C46.2377 32.5364 46.2381 33.2376 46.2381 34.1905H37.5853C37.5853 35.1433 38.0902 37.2901 40.6421 37.2901C41.3212 37.2901 41.8237 37.1264 42.3384 36.8088C42.8423 36.4912 43.0191 36.183 43.1834 35.8654H46.0627C45.5589 37.1249 44.8801 38.0795 43.8615 38.7148C42.8429 39.35 41.6601 39.6667 40.302 39.6667C39.4477 39.6667 38.6043 39.503 37.75 39.1854C37.071 38.8677 36.3928 38.3964 35.889 37.9254C35.3851 37.4435 35.0455 36.808 34.706 36.0194C34.3665 35.3842 34.1905 34.4314 34.1905 33.6429C34.1905 32.8543 34.5086 27.619 40.4667 27.619ZM40.4667 29.8416C37.9915 29.8416 37.5853 32.2189 37.5853 32.3722H43.0187C42.8435 31.5836 42.1315 29.8416 40.4667 29.8416ZM21.0476 32.7786V37.0056H24.7184C25.0349 37.0056 27.2682 36.9077 27.2682 34.9691C27.2682 33.0415 25.5135 32.7786 24.7184 32.7786H21.0476Z" fill="black" />
</svg>
