<svg width="100" height="101" viewBox="0 0 100 101" fill="none" xmlns="http://www.w3.org/2000/svg">
	<path d="M50 44.546V56.7756H66.9952C66.2489 60.7087 64.0094 64.0389 60.6506 66.2781L70.8993 74.2303C76.8706 68.7186 80.3156 60.6228 80.3156 51.0056C80.3156 48.7664 80.1147 46.6131 79.7414 44.5463L50 44.546Z" fill="#4285F4" />
	<path d="M32.3015 56.2983L29.9901 58.0677L21.8081 64.4408C27.0043 74.7469 37.6542 81.8667 49.9986 81.8667C58.5247 81.8667 65.6729 79.0532 70.8979 74.2304L60.6492 66.2782C57.8358 68.1729 54.2472 69.3213 49.9986 69.3213C41.7881 69.3213 34.8122 63.7807 32.3145 56.3165L32.3015 56.2983Z" fill="#34A853" />
	<path d="M21.8082 36.1346C19.6552 40.3832 18.4209 45.1775 18.4209 50.2875C18.4209 55.3975 19.6552 60.1918 21.8082 64.4404C21.8082 64.4689 32.3156 56.2873 32.3156 56.2873C31.684 54.3926 31.3107 52.3831 31.3107 50.2872C31.3107 48.1912 31.684 46.1818 32.3156 44.287L21.8082 36.1346Z" fill="#FBBC05" />
	<path d="M49.9992 31.2829C54.65 31.2829 58.7839 32.8905 62.0854 35.991L71.1283 26.9481C65.6451 21.8381 58.5257 18.7087 49.9992 18.7087C37.6548 18.7087 27.0043 25.7996 21.8081 36.1346L32.3151 44.2877C34.8126 36.8235 41.7888 31.2829 49.9992 31.2829Z" fill="#EA4335" />
</svg>
