<svg width="64" height="64" viewBox="0 0 64 64" fill="none" xmlns="http://www.w3.org/2000/svg">
  <path fill-rule="evenodd" clip-rule="evenodd"
    d="M58 32.0004C58 46.3694 46.3588 58.0014 32.0004 58.0014C17.6426 58.0014 6 46.3687 6 32.0004C6 17.6426 17.6426 6 32.0004 6C46.3595 6 58 17.6426 58 32.0004Z"
    fill="#C5222A" />
  <path fill-rule="evenodd" clip-rule="evenodd"
    d="M20.6551 19.414V28.3344C22.0127 26.7161 23.6409 25.9006 25.5298 25.9006C26.502 25.9006 27.3734 26.0848 28.1543 26.4554C28.9372 26.821 29.5238 27.2914 29.9185 27.8611C30.3167 28.4371 30.5859 29.0677 30.7305 29.7628C30.875 30.4536 30.9473 31.5306 30.9473 32.9902V42.5299H26.7266V33.9375C26.7266 32.2335 26.6507 31.1529 26.4899 30.6945C26.3291 30.2326 26.0478 29.8705 25.6418 29.602C25.2365 29.3285 24.7299 29.1931 24.1184 29.1931C23.4205 29.1931 22.7935 29.3689 22.2479 29.7153C21.6903 30.0646 21.29 30.5868 21.0363 31.2862C20.7784 31.9848 20.6502 33.0178 20.6551 34.3846L20.6502 42.5306H16.4365V19.414H20.6551Z"
    fill="white" />
  <path fill-rule="evenodd" clip-rule="evenodd"
    d="M37.2729 19.414V28.3344C38.6312 26.7161 40.258 25.9006 42.1462 25.9006C43.1155 25.9006 43.9912 26.0848 44.7749 26.4554C45.5542 26.821 46.1423 27.2914 46.5356 27.8611C46.9323 28.4371 47.2016 29.0677 47.3468 29.7628C47.4914 30.4536 47.5644 31.5306 47.5644 32.9902V42.5299H43.3486V33.9375C43.3486 32.2335 43.2692 31.1529 43.1077 30.6945C42.9468 30.2326 42.6663 29.8705 42.2589 29.602C41.8564 29.3285 41.3463 29.1931 40.7355 29.1931C40.0362 29.1931 39.4091 29.3689 38.8629 29.7153C38.313 30.0646 37.9113 30.5868 37.6541 31.2862C37.4012 31.9848 37.2729 33.0178 37.2729 34.3846V42.5306H33.0571V19.414H37.2729Z"
    fill="white" />
</svg> 