<svg width="100" height="97" viewBox="0 0 100 97" fill="none" xmlns="http://www.w3.org/2000/svg">
	<path d="M50 85.9375C70.7107 85.9375 87.5 69.1482 87.5 48.4375C87.5 27.7268 70.7107 10.9375 50 10.9375C29.2893 10.9375 12.5 27.7268 12.5 48.4375C12.5 69.1482 29.2893 85.9375 50 85.9375Z" fill="url(#paint0_linear_155_271)" />
	<path fill-rule="evenodd" clip-rule="evenodd" d="M29.4744 48.0416C40.4064 43.2788 47.6962 40.1388 51.3436 38.6217C61.7578 34.2901 63.9217 33.5376 65.3322 33.5128C65.6424 33.5073 66.336 33.5842 66.7853 33.9488C67.1647 34.2566 67.2691 34.6724 67.319 34.9643C67.3689 35.2562 67.4311 35.921 67.3817 36.4406C66.8174 42.3702 64.3754 56.7598 63.1331 63.4011C62.6075 66.2113 61.5724 67.1535 60.5704 67.2457C58.3927 67.4461 56.739 65.8066 54.6298 64.424C51.3293 62.2605 49.4648 60.9137 46.2611 58.8025C42.5586 56.3626 44.9588 55.0217 47.0688 52.8301C47.621 52.2566 57.2159 43.5292 57.4017 42.7375C57.4249 42.6385 57.4464 42.2694 57.2272 42.0745C57.0079 41.8796 56.6843 41.9463 56.4507 41.9993C56.1197 42.0744 50.8471 45.5594 40.633 52.4542C39.1364 53.4819 37.7808 53.9826 36.5663 53.9564C35.2274 53.9274 32.6518 53.1993 30.7371 52.5769C28.3886 51.8135 26.5221 51.4099 26.6847 50.1135C26.7693 49.4382 27.6992 48.7476 29.4744 48.0416Z" fill="white" />
	<defs>
		<linearGradient id="paint0_linear_155_271" x1="50" y1="10.9375" x2="50" y2="85.3813" gradientUnits="userSpaceOnUse">
			<stop stop-color="#2AABEE" />
			<stop offset="1" stop-color="#229ED9" />
		</linearGradient>
	</defs>
</svg>
