<svg width="100" height="101" viewBox="0 0 100 101" fill="none" xmlns="http://www.w3.org/2000/svg">
  <path
    d="M73.4258 9.3584H26.5742C16.2124 9.3584 7.8125 17.7583 7.8125 28.1201V72.4658C7.8125 82.8276 16.2124 91.2275 26.5742 91.2275H73.4258C83.7876 91.2275 92.1875 82.8276 92.1875 72.4658V28.1201C92.1875 17.7583 83.7876 9.3584 73.4258 9.3584Z"
    fill="#333333" />
  <path
    d="M40 80.2918C45.5229 80.2918 50 75.8147 50 70.2918V60.2918H40C34.4771 60.2918 30 64.7691 30 70.2918C30 75.8147 34.4771 80.2918 40 80.2918Z"
    fill="#0ACF83" />
  <path
    d="M30 50.292C30 44.7691 34.4771 40.292 40 40.292H50V60.292H40C34.4771 60.292 30 55.8147 30 50.292Z"
    fill="#A259FF" />
  <path
    d="M30 30.292C30 24.7691 34.4771 20.2919 40 20.2919H50V40.292H40C34.4771 40.292 30 35.8147 30 30.292Z"
    fill="#F24E1E" />
  <path
    d="M50 20.2919H60C65.5229 20.2919 70 24.7691 70 30.292C70 35.8147 65.5229 40.292 60 40.292H50V20.2919Z"
    fill="#FF7262" />
  <path
    d="M70 50.292C70 55.8147 65.5229 60.292 60 60.292C54.4771 60.292 50 55.8147 50 50.292C50 44.7691 54.4771 40.292 60 40.292C65.5229 40.292 70 44.7691 70 50.292Z"
    fill="#1ABCFE" />
</svg> 