<svg width="48" height="59" viewBox="0 0 48 59" fill="none" xmlns="http://www.w3.org/2000/svg">
  <path
    d="M23.5337 29.8653C22.2031 27.72 21.2377 25.9413 19.9004 22.592C17.6391 16.9347 33.6537 11.8227 27.1604 1.99999C29.9751 8.78533 17.0577 12.98 15.8577 18.6307C14.7604 23.828 23.5271 29.8653 23.5337 29.8653Z"
    fill="#F44336" />
  <path
    d="M23.8377 19.6947C23.5817 23.0493 26.8097 24.8373 26.903 27.288C26.9777 29.2827 24.9737 30.9453 24.9737 30.9453C24.9737 30.9453 28.611 30.2307 29.7457 27.188C31.0057 23.8093 27.3004 21.496 27.6817 18.7907C28.0377 16.2067 35.723 11.4 35.723 11.4C35.723 11.4 24.415 12.1493 23.8377 19.6947Z"
    fill="#F44336" />
  <path
    d="M34.7785 30.0747C37.1171 29.5493 39.0891 31.0387 39.0891 32.7547C39.0891 36.6227 33.7278 40.2787 33.7278 40.2787C33.7278 40.2787 42.0278 39.2893 42.0278 32.9387C42.0278 28.7387 37.9518 27.6893 34.7785 30.0747ZM30.8385 33.1947C30.8385 33.1947 33.4265 31.3507 34.1158 30.6587C27.7651 32.0067 13.2651 32.188 13.2651 31.0173C13.2651 29.9387 17.9411 28.8333 17.9411 28.8333C17.9411 28.8333 7.57715 28.684 7.57715 31.7413C7.57715 34.928 21.1438 35.156 30.8385 33.1947Z"
    fill="#1565C0" />
  <path
    d="M29.2463 36.096C23.2343 38.0947 12.1609 37.456 15.4409 34.772C13.8436 34.772 11.4756 36.056 11.4756 37.2907C11.4756 39.7667 23.4516 41.6787 32.3156 38.0533L29.2463 36.096Z"
    fill="#1565C0" />
  <path
    d="M16.9151 40.32C14.7338 40.32 13.3218 41.7253 13.3218 42.7493C13.3218 45.9373 26.3351 46.2587 31.4911 43.0227L28.2138 40.8467C24.3618 42.54 14.6858 42.7733 16.9151 40.32Z"
    fill="#1565C0" />
  <path
    d="M40.3747 45.5107C40.3747 44.2627 38.968 43.6747 38.464 43.3933C41.4347 50.5573 8.708 50.0013 8.708 45.772C8.708 44.8107 11.1173 43.8693 13.344 44.3147L11.4507 43.196C7.01333 42.5 4 44.4507 4 46.024C4 53.3613 40.3747 53.008 40.3747 45.5107Z"
    fill="#1565C0" />
  <path
    d="M44.0002 48.14C38.4722 53.6 24.4549 55.5893 10.3589 52.216C24.4549 58.22 43.9336 54.8387 44.0002 48.14Z"
    fill="#1565C0" />
</svg> 